<svg width="24" height="25" viewBox="0 0 24 25" fill="none" xmlns="http://www.w3.org/2000/svg">
<path d="M6.5 16.2462C7.28333 16.2462 8.04583 16.3338 8.7875 16.5092C9.52917 16.6846 10.2667 16.9477 11 17.2984V7.42731C10.3167 7.02645 9.59167 6.72581 8.825 6.52538C8.05833 6.32496 7.28333 6.22474 6.5 6.22474C5.9 6.22474 5.30417 6.2832 4.7125 6.40012C4.12083 6.51703 3.55 6.69241 3 6.92624V16.8474C3.58333 16.647 4.1625 16.4967 4.7375 16.3965C5.3125 16.2963 5.9 16.2462 6.5 16.2462ZM13 17.2984C13.7333 16.9477 14.4708 16.6846 15.2125 16.5092C15.9542 16.3338 16.7167 16.2462 17.5 16.2462C18.1 16.2462 18.6875 16.2963 19.2625 16.3965C19.8375 16.4967 20.4167 16.647 21 16.8474V6.92624C20.45 6.69241 19.8792 6.51703 19.2875 6.40012C18.6958 6.2832 18.1 6.22474 17.5 6.22474C16.7167 6.22474 15.9417 6.32496 15.175 6.52538C14.4083 6.72581 13.6833 7.02645 13 7.42731V17.2984ZM12 19.7286C11.7667 19.7286 11.5458 19.6994 11.3375 19.6409C11.1292 19.5825 10.9333 19.5031 10.75 19.4029C10.1 19.0187 9.41667 18.7306 8.7 18.5386C7.98333 18.3465 7.25 18.2504 6.5 18.2504C5.8 18.2504 5.1125 18.3423 4.4375 18.526C3.7625 18.7098 3.11667 18.9686 2.5 19.3027C2.15 19.4864 1.8125 19.4781 1.4875 19.2776C1.1625 19.0772 1 18.7849 1 18.4008V6.32496C1 6.14123 1.04583 5.96586 1.1375 5.79883C1.22917 5.63181 1.36667 5.50654 1.55 5.42303C2.31667 5.02217 3.11667 4.72153 3.95 4.5211C4.78333 4.32067 5.63333 4.22046 6.5 4.22046C7.46667 4.22046 8.4125 4.34573 9.3375 4.59626C10.2625 4.8468 11.15 5.2226 12 5.72367C12.85 5.2226 13.7375 4.8468 14.6625 4.59626C15.5875 4.34573 16.5333 4.22046 17.5 4.22046C18.3667 4.22046 19.2167 4.32067 20.05 4.5211C20.8833 4.72153 21.6833 5.02217 22.45 5.42303C22.6333 5.50654 22.7708 5.63181 22.8625 5.79883C22.9542 5.96586 23 6.14123 23 6.32496V18.4008C23 18.7849 22.8375 19.0772 22.5125 19.2776C22.1875 19.4781 21.85 19.4864 21.5 19.3027C20.8833 18.9686 20.2375 18.7098 19.5625 18.526C18.8875 18.3423 18.2 18.2504 17.5 18.2504C16.75 18.2504 16.0167 18.3465 15.3 18.5386C14.5833 18.7306 13.9 19.0187 13.25 19.4029C13.0667 19.5031 12.8708 19.5825 12.6625 19.6409C12.4542 19.6994 12.2333 19.7286 12 19.7286ZM14 9.00568C14 8.85536 14.0542 8.70087 14.1625 8.54219C14.2708 8.38352 14.3917 8.27913 14.525 8.22902C15.0083 8.062 15.4917 7.93673 15.975 7.85322C16.4583 7.76971 16.9667 7.72795 17.5 7.72795C17.8333 7.72795 18.1625 7.74883 18.4875 7.79059C18.8125 7.83234 19.1333 7.88663 19.45 7.95344C19.6 7.98684 19.7292 8.07035 19.8375 8.20397C19.9458 8.33759 20 8.48791 20 8.65493C20 8.93887 19.9083 9.14765 19.725 9.28127C19.5417 9.41489 19.3083 9.4483 19.025 9.38149C18.7917 9.33138 18.5458 9.2938 18.2875 9.26875C18.0292 9.24369 17.7667 9.23117 17.5 9.23117C17.0667 9.23117 16.6417 9.27292 16.225 9.35643C15.8083 9.43994 15.4083 9.54851 15.025 9.68213C14.725 9.79905 14.4792 9.79069 14.2875 9.65708C14.0958 9.52346 14 9.30633 14 9.00568ZM14 14.5175C14 14.3671 14.0542 14.2126 14.1625 14.054C14.2708 13.8953 14.3917 13.7909 14.525 13.7408C15.0083 13.5738 15.4917 13.4485 15.975 13.365C16.4583 13.2815 16.9667 13.2397 17.5 13.2397C17.8333 13.2397 18.1625 13.2606 18.4875 13.3024C18.8125 13.3441 19.1333 13.3984 19.45 13.4652C19.6 13.4986 19.7292 13.5821 19.8375 13.7157C19.9458 13.8494 20 13.9997 20 14.1667C20 14.4507 19.9083 14.6594 19.725 14.793C19.5417 14.9267 19.3083 14.9601 19.025 14.8933C18.7917 14.8432 18.5458 14.8056 18.2875 14.7805C18.0292 14.7555 17.7667 14.7429 17.5 14.7429C17.0667 14.7429 16.6417 14.7805 16.225 14.8557C15.8083 14.9308 15.4083 15.0352 15.025 15.1689C14.725 15.2858 14.4792 15.2816 14.2875 15.1563C14.0958 15.0311 14 14.8181 14 14.5175ZM14 11.7616C14 11.6113 14.0542 11.4568 14.1625 11.2981C14.2708 11.1394 14.3917 11.035 14.525 10.9849C15.0083 10.8179 15.4917 10.6926 15.975 10.6091C16.4583 10.5256 16.9667 10.4838 17.5 10.4838C17.8333 10.4838 18.1625 10.5047 18.4875 10.5465C18.8125 10.5882 19.1333 10.6425 19.45 10.7093C19.6 10.7427 19.7292 10.8262 19.8375 10.9599C19.9458 11.0935 20 11.2438 20 11.4108C20 11.6948 19.9083 11.9035 19.725 12.0372C19.5417 12.1708 19.3083 12.2042 19.025 12.1374C18.7917 12.0873 18.5458 12.0497 18.2875 12.0246C18.0292 11.9996 17.7667 11.9871 17.5 11.9871C17.0667 11.9871 16.6417 12.0288 16.225 12.1123C15.8083 12.1958 15.4083 12.3044 15.025 12.438C14.725 12.5549 14.4792 12.5466 14.2875 12.413C14.0958 12.2793 14 12.0622 14 11.7616Z" fill="url(#paint0_linear_25_178)"/>
<defs>
<linearGradient id="paint0_linear_25_178" x1="12" y1="4.22046" x2="12" y2="19.7286" gradientUnits="userSpaceOnUse">
<stop offset="0.05" stop-color="#F5AE0A"/>
<stop offset="1" stop-color="#F5830A"/>
</linearGradient>
</defs>
</svg>
