<svg width="24" height="25" viewBox="0 0 24 25" fill="none" xmlns="http://www.w3.org/2000/svg">
<path d="M15.075 19.5669L14.225 21.9971C14.1583 22.1808 14.0417 22.3311 13.875 22.448C13.7083 22.5649 13.525 22.6234 13.325 22.6234C12.9917 22.6234 12.7208 22.4856 12.5125 22.21C12.3042 21.9344 12.2667 21.6296 12.4 21.2956L16.2 11.224C16.2833 11.0403 16.4083 10.89 16.575 10.7731C16.7417 10.6562 16.925 10.5977 17.125 10.5977H17.875C18.075 10.5977 18.2583 10.6562 18.425 10.7731C18.5917 10.89 18.7167 11.0403 18.8 11.224L22.6 21.3206C22.7333 21.638 22.7 21.9344 22.5 22.21C22.3 22.4856 22.0333 22.6234 21.7 22.6234C21.4833 22.6234 21.2958 22.5649 21.1375 22.448C20.9792 22.3311 20.8583 22.1724 20.775 21.972L19.925 19.5669H15.075ZM9.05 14.5812L4.7 18.9155C4.51667 19.0992 4.2875 19.1952 4.0125 19.2036C3.7375 19.2119 3.5 19.1159 3.3 18.9155C3.11667 18.7317 3.025 18.4979 3.025 18.214C3.025 17.93 3.11667 17.6962 3.3 17.5125L7.65 13.1532C7.06667 12.5686 6.5375 11.9005 6.0625 11.1489C5.5875 10.3973 5.15 9.54545 4.75 8.59341H6.85C7.18333 9.24481 7.51667 9.81269 7.85 10.2971C8.18333 10.7814 8.58333 11.2658 9.05 11.7502C9.6 11.199 10.1708 10.4265 10.7625 9.43271C11.3542 8.43892 11.8 7.49106 12.1 6.58913H2C1.71667 6.58913 1.47917 6.49309 1.2875 6.30102C1.09583 6.10894 1 5.87093 1 5.58699C1 5.30305 1.09583 5.06504 1.2875 4.87296C1.47917 4.68089 1.71667 4.58485 2 4.58485H8V3.58271C8 3.29877 8.09583 3.06076 8.2875 2.86868C8.47917 2.6766 8.71667 2.58057 9 2.58057C9.28333 2.58057 9.52083 2.6766 9.7125 2.86868C9.90417 3.06076 10 3.29877 10 3.58271V4.58485H16C16.2833 4.58485 16.5208 4.68089 16.7125 4.87296C16.9042 5.06504 17 5.30305 17 5.58699C17 5.87093 16.9042 6.10894 16.7125 6.30102C16.5208 6.49309 16.2833 6.58913 16 6.58913H14.1C13.75 7.7917 13.225 9.02768 12.525 10.2971C11.825 11.5664 11.1333 12.5352 10.45 13.2033L12.85 15.6585L12.1 17.7129L9.05 14.5812ZM15.7 17.8131H19.3L17.5 12.7022L15.7 17.8131Z" fill="url(#paint0_linear_25_170)"/>
<defs>
<linearGradient id="paint0_linear_25_170" x1="11.84" y1="2.58057" x2="11.84" y2="22.6234" gradientUnits="userSpaceOnUse">
<stop offset="0.05" stop-color="#F5AE0A"/>
<stop offset="1" stop-color="#F5830A"/>
</linearGradient>
</defs>
</svg>
