<svg width="24" height="24" viewBox="0 0 24 24" fill="none" xmlns="http://www.w3.org/2000/svg">
<path d="M2.375 4.20833C2.375 4.69456 2.56815 5.16088 2.91197 5.5047C3.25579 5.84851 3.7221 6.04167 4.20833 6.04167C4.69456 6.04167 5.16088 5.84851 5.5047 5.5047C5.84851 5.16088 6.04167 4.69456 6.04167 4.20833C6.04167 3.7221 5.84851 3.25579 5.5047 2.91197C5.16088 2.56815 4.69456 2.375 4.20833 2.375C3.7221 2.375 3.25579 2.56815 2.91197 2.91197C2.56815 3.25579 2.375 3.7221 2.375 4.20833Z" stroke="#2E2E2E" stroke-width="2" stroke-linejoin="round"/>
<path d="M2.375 21.625V8.79169H6.04167V21.625H2.375Z" stroke="#2E2E2E" stroke-width="2" stroke-linejoin="round"/>
<path d="M8.33337 8.79169V21.625H12V15.2927C12 14.2917 12.9167 12.4584 15.5705 12.4584C17.0765 12.4584 17.9584 13.2329 17.9584 14.75V21.625H21.625V14.75C21.625 13.5501 21.339 12.0578 20.3472 10.8294C19.2985 9.53052 17.677 8.79169 15.5714 8.79169C14.1845 8.79169 12.9726 9.35544 12 10.0439V8.79169H8.33337Z" stroke="#2E2E2E" stroke-width="2" stroke-linejoin="round"/>
</svg>
