<svg width="307" height="38" viewBox="0 0 307 38" fill="none" xmlns="http://www.w3.org/2000/svg">
<path d="M10.872 3.736C15.256 3.736 18.664 4.64799 21.096 6.47199C23.528 8.29599 24.744 11 24.744 14.584C24.744 18.328 23.544 21.16 21.144 23.08C18.776 24.968 15.592 25.912 11.592 25.912H7.992V37H0.119995V3.736H10.872ZM10.92 20.248C12.776 20.248 14.184 19.816 15.144 18.952C16.136 18.056 16.632 16.6 16.632 14.584C16.632 11.096 14.68 9.35199 10.776 9.35199H7.992V20.248H10.92Z" fill="#0E0E0E"/>
<path d="M46.5289 29.608C46.5289 30.568 46.6569 31.272 46.9129 31.72C47.2009 32.168 47.6489 32.504 48.2569 32.728L46.6729 37.672C45.1049 37.544 43.8249 37.208 42.8329 36.664C41.8409 36.088 41.0729 35.192 40.5289 33.976C38.8649 36.536 36.3049 37.816 32.8489 37.816C30.3209 37.816 28.3049 37.08 26.8009 35.608C25.2969 34.136 24.5449 32.216 24.5449 29.848C24.5449 27.064 25.5689 24.936 27.6169 23.464C29.6649 21.992 32.6249 21.256 36.4969 21.256H39.0889V20.152C39.0889 18.648 38.7689 17.624 38.1289 17.08C37.4889 16.504 36.3689 16.216 34.7689 16.216C33.9369 16.216 32.9289 16.344 31.7449 16.6C30.5609 16.824 29.3449 17.144 28.0969 17.56L26.3689 12.568C27.9689 11.96 29.6009 11.496 31.2649 11.176C32.9609 10.856 34.5289 10.696 35.9689 10.696C39.6169 10.696 42.2889 11.448 43.9849 12.952C45.6809 14.456 46.5289 16.712 46.5289 19.72V29.608ZM35.0569 32.392C36.7849 32.392 38.1289 31.576 39.0889 29.944V25.432H37.2169C35.4889 25.432 34.1929 25.736 33.3289 26.344C32.4969 26.952 32.0809 27.896 32.0809 29.176C32.0809 30.2 32.3369 31 32.8489 31.576C33.3929 32.12 34.1289 32.392 35.0569 32.392Z" fill="#0E0E0E"/>
<path d="M74.0737 37H67.4977L67.1617 33.784C65.3057 36.472 62.7297 37.816 59.4337 37.816C57.0977 37.816 55.3217 37.112 54.1057 35.704C52.9217 34.296 52.3297 32.328 52.3297 29.8V11.512H59.9137V28.84C59.9137 30.088 60.1057 30.968 60.4897 31.48C60.9057 31.96 61.5297 32.2 62.3617 32.2C63.9617 32.2 65.3377 31.208 66.4897 29.224V11.512H74.0737V37Z" fill="#0E0E0E"/>
<path d="M86.8065 37.816C84.5985 37.816 82.8705 37.192 81.6225 35.944C80.4065 34.664 79.7985 32.856 79.7985 30.52V1.38399L87.3825 0.567993V30.232C87.3825 31.288 87.8145 31.816 88.6785 31.816C89.1265 31.816 89.5425 31.736 89.9265 31.576L91.4145 36.952C90.0385 37.528 88.5025 37.816 86.8065 37.816Z" fill="#0E0E0E"/>
<path d="M105.094 10.696C108.998 10.696 112.054 11.896 114.262 14.296C116.47 16.664 117.574 19.992 117.574 24.28C117.574 27 117.062 29.384 116.038 31.432C115.046 33.448 113.606 35.016 111.718 36.136C109.862 37.256 107.654 37.816 105.094 37.816C101.222 37.816 98.1661 36.632 95.9261 34.264C93.7181 31.864 92.6141 28.52 92.6141 24.232C92.6141 21.512 93.1101 19.144 94.1021 17.128C95.1261 15.08 96.5661 13.496 98.4221 12.376C100.31 11.256 102.534 10.696 105.094 10.696ZM105.094 16.264C103.558 16.264 102.406 16.92 101.638 18.232C100.87 19.512 100.486 21.512 100.486 24.232C100.486 27.016 100.854 29.048 101.59 30.328C102.358 31.608 103.526 32.248 105.094 32.248C106.63 32.248 107.782 31.608 108.55 30.328C109.318 29.016 109.702 27 109.702 24.28C109.702 21.496 109.318 19.464 108.55 18.184C107.814 16.904 106.662 16.264 105.094 16.264Z" fill="#0E0E0E"/>
<path d="M144.564 24.28H141.492V37H133.62V3.736H144.516C149.06 3.736 152.468 4.568 154.74 6.23199C157.044 7.89599 158.196 10.44 158.196 13.864C158.196 16.008 157.684 17.8 156.66 19.24C155.636 20.648 154.02 21.848 151.812 22.84L160.26 37H151.38L144.564 24.28ZM141.492 18.856H144.804C146.564 18.856 147.876 18.456 148.74 17.656C149.636 16.856 150.084 15.592 150.084 13.864C150.084 12.264 149.604 11.096 148.644 10.36C147.716 9.624 146.276 9.256 144.324 9.256H141.492V18.856Z" fill="#0E0E0E"/>
<path d="M173.438 10.696C177.342 10.696 180.398 11.896 182.606 14.296C184.814 16.664 185.918 19.992 185.918 24.28C185.918 27 185.406 29.384 184.382 31.432C183.39 33.448 181.95 35.016 180.062 36.136C178.206 37.256 175.998 37.816 173.438 37.816C169.566 37.816 166.51 36.632 164.27 34.264C162.062 31.864 160.958 28.52 160.958 24.232C160.958 21.512 161.454 19.144 162.446 17.128C163.47 15.08 164.91 13.496 166.766 12.376C168.654 11.256 170.878 10.696 173.438 10.696ZM173.438 16.264C171.902 16.264 170.75 16.92 169.982 18.232C169.214 19.512 168.83 21.512 168.83 24.232C168.83 27.016 169.198 29.048 169.934 30.328C170.702 31.608 171.87 32.248 173.438 32.248C174.974 32.248 176.126 31.608 176.894 30.328C177.662 29.016 178.046 27 178.046 24.28C178.046 21.496 177.662 19.464 176.894 18.184C176.158 16.904 175.006 16.264 173.438 16.264Z" fill="#0E0E0E"/>
<path d="M204.877 10.696C207.917 10.696 210.253 11.896 211.885 14.296C213.517 16.664 214.333 19.992 214.333 24.28C214.333 26.904 213.917 29.24 213.085 31.288C212.285 33.336 211.117 34.936 209.581 36.088C208.077 37.24 206.285 37.816 204.205 37.816C202.829 37.816 201.565 37.528 200.413 36.952C199.293 36.376 198.333 35.576 197.533 34.552L197.149 37H190.429V1.38399L198.013 0.567993V14.104C198.781 13.048 199.757 12.216 200.941 11.608C202.157 11 203.469 10.696 204.877 10.696ZM201.997 32.296C204.973 32.296 206.461 29.624 206.461 24.28C206.461 21.24 206.109 19.144 205.405 17.992C204.701 16.84 203.677 16.264 202.333 16.264C200.637 16.264 199.197 17.256 198.013 19.24V29.848C198.493 30.616 199.069 31.224 199.741 31.672C200.445 32.088 201.197 32.296 201.997 32.296Z" fill="#0E0E0E"/>
<path d="M241.294 23.752C241.294 24.808 241.246 25.72 241.15 26.488H225.358C225.614 28.632 226.222 30.136 227.182 31C228.142 31.864 229.47 32.296 231.166 32.296C232.19 32.296 233.182 32.12 234.142 31.768C235.102 31.384 236.142 30.808 237.262 30.04L240.382 34.264C237.406 36.632 234.094 37.816 230.446 37.816C226.318 37.816 223.15 36.6 220.942 34.168C218.734 31.736 217.63 28.472 217.63 24.376C217.63 21.784 218.094 19.464 219.022 17.416C219.95 15.336 221.31 13.704 223.102 12.52C224.894 11.304 227.038 10.696 229.534 10.696C233.214 10.696 236.094 11.848 238.174 14.152C240.254 16.456 241.294 19.656 241.294 23.752ZM233.854 21.592C233.79 17.688 232.414 15.736 229.726 15.736C228.414 15.736 227.39 16.216 226.654 17.176C225.95 18.136 225.518 19.72 225.358 21.928H233.854V21.592Z" fill="#0E0E0E"/>
<path d="M259.378 10.792C260.306 10.792 261.154 10.904 261.922 11.128L260.722 18.472C259.762 18.248 258.994 18.136 258.418 18.136C256.914 18.136 255.762 18.664 254.962 19.72C254.194 20.744 253.586 22.296 253.138 24.376V37H245.554V11.512H252.178L252.802 16.456C253.378 14.696 254.242 13.32 255.394 12.328C256.578 11.304 257.906 10.792 259.378 10.792Z" fill="#0E0E0E"/>
<path d="M280.804 35.8C279.876 36.44 278.788 36.936 277.54 37.288C276.324 37.64 275.108 37.816 273.892 37.816C268.324 37.784 265.54 34.712 265.54 28.6V16.792H261.94V11.512H265.54V5.99199L273.124 5.12799V11.512H278.98L278.164 16.792H273.124V28.504C273.124 29.688 273.316 30.536 273.7 31.048C274.084 31.56 274.692 31.816 275.524 31.816C276.388 31.816 277.3 31.544 278.26 31L280.804 35.8Z" fill="#0E0E0E"/>
<path d="M293.532 10.696C297.436 10.696 300.492 11.896 302.7 14.296C304.908 16.664 306.012 19.992 306.012 24.28C306.012 27 305.5 29.384 304.476 31.432C303.484 33.448 302.044 35.016 300.156 36.136C298.3 37.256 296.092 37.816 293.532 37.816C289.66 37.816 286.604 36.632 284.364 34.264C282.156 31.864 281.052 28.52 281.052 24.232C281.052 21.512 281.548 19.144 282.54 17.128C283.564 15.08 285.004 13.496 286.86 12.376C288.748 11.256 290.972 10.696 293.532 10.696ZM293.532 16.264C291.996 16.264 290.844 16.92 290.076 18.232C289.308 19.512 288.924 21.512 288.924 24.232C288.924 27.016 289.292 29.048 290.028 30.328C290.796 31.608 291.964 32.248 293.532 32.248C295.068 32.248 296.22 31.608 296.988 30.328C297.756 29.016 298.14 27 298.14 24.28C298.14 21.496 297.756 19.464 296.988 18.184C296.252 16.904 295.1 16.264 293.532 16.264Z" fill="#0E0E0E"/>
</svg>
